# xmcd CD database file
#
# Track frame offsets:
#	150
#	14647
#	30474
#	43610
#	57281
#	72879
#	86377
#	99388
#	114499
#	128700
#	144001
#	155871
#	168485
#	182006
#	192026
#	204418
#	219657
#	232297
#	245220
#	257577
#	272125
#	285312
#
# Disc length: 3991 seconds
#
# Revision: 5
# Processed by: cddbd v1.5.2PL0 Copyright (c) Steve Scherf et al.
# Submitted via: CDex 1.51
#
DISCID=3d0f9516
DTITLE=Various Artist - Chicago Legends - Sweet Home Chicago  {1926-1950]
DYEAR=2002
DGENRE=Jazz
TTITLE0=Louis Armstrong - Wild Man Blues   [1927]
TTITLE1=Louis Armstrong - Keyhole Blues   [1927]
TTITLE2=Louis Armstrong - No Papa No   [1928]
TTITLE3=King Oliver - Black Snake Blues   [1927]
TTITLE4=Jelly Roll Morton - Doctor Jazz   [1926]
TTITLE5=Johnny Dodds - Too Tight   [1926]
TTITLE6=Chicago Footwarmers - Get 'Em Again Blues   [1928]
TTITLE7=Louis Armstrong - Chicago Breakdown   [1927]
TTITLE8=Jimmy Noone - My Daddy Rocks Me   [1929]
TTITLE9=Mezz Mezzrow - Apologies   [1934]
TTITLE10=Earl Hines - Pianology   [1937]
TTITLE11=Earl Hines - Riff Medley   [1936]
TTITLE12=Horace Henderson - Flinging A Wing Ding   [1940]
TTITLE13=Sonny Thompson - Late Freight  (Creeping)   [1948]
TTITLE14=Eddie Chamblee - Lazy Mood  (Blues For Eddie)   [1949]
TTITLE15=Pinetop Smith - Pinetop's Boogie Woogie   [1928]
TTITLE16=Jimmy Yancey - Yancey Stomp   [1939]
TTITLE17=Albert Ammons - Your Are My Sunshine   [1948]
TTITLE18=Albert Ammons - Tuxedo Boogie   [1948]
TTITLE19=Big Bill Broonzy - Saturday Evening Blues   [1947]
TTITLE20=Big Maceo - Winter Time Blues   [1945]
TTITLE21=Muddy Waters - You're Gonna Need My Help I Said   [1950]
EXTD=YEAR: 2002
EXTT0=
EXTT1=
EXTT2=
EXTT3=
EXTT4=
EXTT5=
EXTT6=
EXTT7=
EXTT8=
EXTT9=
EXTT10=
EXTT11=
EXTT12=
EXTT13=
EXTT14=
EXTT15=
EXTT16=
EXTT17=
EXTT18=
EXTT19=
EXTT20=
EXTT21=
PLAYORDER=
